<?xml version="1.0" encoding="UTF-8"?>
<svg version="1.1" xmlns="http://www.w3.org/2000/svg" width="512" height="512">
<path d="M0 0 C2.8828125 2.7578125 2.8828125 2.7578125 4.30566406 4.15332031 C5.78731428 5.59890602 7.29386516 7.01466873 8.8046875 8.4296875 C36.73807272 34.97615179 51.69551461 74.13914636 52.74609375 112.26171875 C53.17950281 154.46000124 37.59979401 193.05783297 8.1875 223.1875 C7.383125 223.97125 6.57875 224.755 5.75 225.5625 C5.26144531 226.10777344 4.77289063 226.65304687 4.26953125 227.21484375 C-9.55563499 242.13869869 -29.28660164 252.84469694 -48.25 259.5625 C-48.89195312 259.79066406 -49.53390625 260.01882813 -50.1953125 260.25390625 C-64.03648441 265.07901598 -77.89032809 267.53655054 -92.5 268.5625 C-93.39356201 268.64081055 -94.28712402 268.71912109 -95.20776367 268.79980469 C-99.75109001 269.04438196 -101.58660021 269.0554545 -105.3515625 266.2578125 C-107.25 263.5625 -107.25 263.5625 -107.375 260.4375 C-106.25 257.5625 -106.25 257.5625 -104.40625 255.921875 C-100.45529975 254.22022811 -97.1009243 254.18811151 -92.83496094 254.04736328 C-79.4220422 253.6003795 -79.4220422 253.6003795 -68.609375 246.234375 C-67.83078125 245.35265625 -67.0521875 244.4709375 -66.25 243.5625 C-65.28573358 242.6407943 -64.31127321 241.72966298 -63.328125 240.828125 C-37.93672741 217.2524206 -21.97441895 181.99690801 -20.08154297 147.49169922 C-18.59119835 106.04265881 -31.37383788 68.6855302 -59.81494141 38.07177734 C-84.99174826 11.59286956 -120.90451514 -3.82691721 -157.25 -5.4375 C-158.57451172 -5.61925781 -158.57451172 -5.61925781 -159.92578125 -5.8046875 C-169.09317891 -6.68030001 -175.28467207 -1.69068028 -182.25 3.5625 C-183.20003906 4.27019531 -184.15007812 4.97789062 -185.12890625 5.70703125 C-210.73527694 25.79703679 -227.31554662 52.50315189 -235.390625 83.9453125 C-235.56924072 84.63963379 -235.74785645 85.33395508 -235.93188477 86.04931641 C-236.40529841 87.9342845 -236.85019571 89.82635014 -237.29296875 91.71875 C-238.25 94.5625 -238.25 94.5625 -241.25 96.5625 C-246.7230978 96.32793867 -250.17174968 94.71205853 -254.75 91.8125 C-273.89637772 80.25427847 -297.07092799 77.64093233 -318.72265625 82.5859375 C-332.89183152 86.5087435 -345.21307509 92.85359533 -356.25 102.5625 C-357.39275391 103.56216797 -357.39275391 103.56216797 -358.55859375 104.58203125 C-373.79088804 118.81115884 -383.55620207 140.23776336 -384.5625 160.953125 C-385.26137489 184.26712421 -379.48153914 203.89777345 -365.25 222.5625 C-364.69699219 223.30113281 -364.14398438 224.03976562 -363.57421875 224.80078125 C-351.39891048 239.87641109 -330.54956482 251.07421079 -311.39453125 253.13671875 C-308.85831347 253.39113407 -306.32706206 253.6197664 -303.78393555 253.79248047 C-298.78791005 254.17611035 -294.96176981 254.85073019 -291.25 258.5625 C-290.78191489 263.94547872 -290.78191489 263.94547872 -292.625 266.375 C-298.43713636 270.62233042 -308.64295545 268.25457594 -315.45703125 267.23095703 C-341.80285601 262.50484359 -365.72741978 247.42495398 -381.25 225.5625 C-396.93380773 201.88563375 -402.20418402 174.3888897 -397.25 146.5625 C-392.15119876 121.83007322 -377.78015264 99.68888047 -357.375 84.75 C-332.71427093 68.72052611 -304.3952768 62.1104698 -275.1875 68.125 C-265.65454749 70.27156669 -256.95585212 74.20957394 -248.25 78.5625 C-248.10304687 77.87027344 -247.95609375 77.17804688 -247.8046875 76.46484375 C-241.47770645 48.86611608 -226.37067438 25.16725965 -206.25 5.5625 C-205.73824219 5.005625 -205.22648438 4.44875 -204.69921875 3.875 C-179.76370566 -22.60897108 -141.59359261 -35.62864523 -105.99072266 -37.35595703 C-67.7021754 -38.4951317 -28.52739067 -26.07271907 0 0 Z " fill="#1E92B2" transform="translate(429.25,148.4375)"/>
<path d="M0 0 C2.8828125 2.7578125 2.8828125 2.7578125 4.30566406 4.15332031 C5.78731428 5.59890602 7.29386516 7.01466873 8.8046875 8.4296875 C36.73807272 34.97615179 51.69551461 74.13914636 52.74609375 112.26171875 C53.17950281 154.46000124 37.59979401 193.05783297 8.1875 223.1875 C7.383125 223.97125 6.57875 224.755 5.75 225.5625 C5.26144531 226.10777344 4.77289063 226.65304687 4.26953125 227.21484375 C-9.55563499 242.13869869 -29.28660164 252.84469694 -48.25 259.5625 C-48.89195312 259.79066406 -49.53390625 260.01882813 -50.1953125 260.25390625 C-64.03648441 265.07901598 -77.89032809 267.53655054 -92.5 268.5625 C-93.39356201 268.64081055 -94.28712402 268.71912109 -95.20776367 268.79980469 C-99.75109001 269.04438196 -101.58660021 269.0554545 -105.3515625 266.2578125 C-107.25 263.5625 -107.25 263.5625 -107.375 260.4375 C-105.8964846 256.65907176 -104.96989107 256.20036248 -101.25 254.5625 C-97.47341468 253.97567557 -93.68839274 253.77786945 -89.875 253.5625 C-52.56633025 250.89779411 -19.21041992 234.80286998 5.75 206.5625 C16.72426821 193.31467822 24.96589464 178.741469 30.75 162.5625 C30.97816406 161.94181641 31.20632813 161.32113281 31.44140625 160.68164062 C39.534177 138.36871556 41.0427657 113.85198747 36.75 90.5625 C36.57259277 89.58796875 36.57259277 89.58796875 36.39160156 88.59375 C31.2046383 61.14112003 17.80506046 37.78911934 -1.25 17.5625 C-1.84941406 16.89863281 -2.44882812 16.23476562 -3.06640625 15.55078125 C-16.61730987 1.12184931 -34.79555848 -8.83989578 -53.25 -15.4375 C-53.87068359 -15.66566406 -54.49136719 -15.89382812 -55.13085938 -16.12890625 C-78.81203237 -24.71793273 -105.78550231 -26.51433454 -130.25 -20.4375 C-131.47460938 -20.1590625 -132.69921875 -19.880625 -133.9609375 -19.59375 C-167.71133891 -11.38610521 -198.81834667 11.01312963 -217.25 40.5625 C-225.46909937 54.35188947 -231.40326637 68.41962166 -235.390625 83.9453125 C-235.56924072 84.63963379 -235.74785645 85.33395508 -235.93188477 86.04931641 C-236.40529841 87.9342845 -236.85019571 89.82635014 -237.29296875 91.71875 C-238.25 94.5625 -238.25 94.5625 -241.25 96.5625 C-246.7230978 96.32793867 -250.17174968 94.71205853 -254.75 91.8125 C-273.89637772 80.25427847 -297.07092799 77.64093233 -318.72265625 82.5859375 C-332.89183152 86.5087435 -345.21307509 92.85359533 -356.25 102.5625 C-357.39275391 103.56216797 -357.39275391 103.56216797 -358.55859375 104.58203125 C-373.79088804 118.81115884 -383.55620207 140.23776336 -384.5625 160.953125 C-385.26137489 184.26712421 -379.48153914 203.89777345 -365.25 222.5625 C-364.69699219 223.30113281 -364.14398438 224.03976562 -363.57421875 224.80078125 C-351.39891048 239.87641109 -330.54956482 251.07421079 -311.39453125 253.13671875 C-308.85831347 253.39113407 -306.32706206 253.6197664 -303.78393555 253.79248047 C-298.78791005 254.17611035 -294.96176981 254.85073019 -291.25 258.5625 C-290.78191489 263.94547872 -290.78191489 263.94547872 -292.625 266.375 C-298.43713636 270.62233042 -308.64295545 268.25457594 -315.45703125 267.23095703 C-341.80285601 262.50484359 -365.72741978 247.42495398 -381.25 225.5625 C-396.93380773 201.88563375 -402.20418402 174.3888897 -397.25 146.5625 C-392.15119876 121.83007322 -377.78015264 99.68888047 -357.375 84.75 C-332.71427093 68.72052611 -304.3952768 62.1104698 -275.1875 68.125 C-265.65454749 70.27156669 -256.95585212 74.20957394 -248.25 78.5625 C-248.10304687 77.87027344 -247.95609375 77.17804688 -247.8046875 76.46484375 C-241.47770645 48.86611608 -226.37067438 25.16725965 -206.25 5.5625 C-205.73824219 5.005625 -205.22648438 4.44875 -204.69921875 3.875 C-179.76370566 -22.60897108 -141.59359261 -35.62864523 -105.99072266 -37.35595703 C-67.7021754 -38.4951317 -28.52739067 -26.07271907 0 0 Z " fill="#344F65" transform="translate(429.25,148.4375)"/>
<path d="M0 0 C7.71880364 7.57347052 7.71880364 7.57347052 8.3671875 12.01953125 C7.9296875 15.01953125 7.9296875 15.01953125 6.3671875 17.39453125 C3.9296875 19.01953125 3.9296875 19.01953125 0.90625 18.8203125 C-4.57978435 19.09515312 -8.36197047 21.24306124 -13.1328125 23.83203125 C-14.51629883 24.56993896 -14.51629883 24.56993896 -15.92773438 25.32275391 C-26.12910493 30.91573529 -34.95408505 37.6944303 -43.0703125 46.01953125 C-46.65240249 44.5584156 -48.2917176 42.73262698 -50.5703125 39.64453125 C-70.2293821 14.52862431 -97.87683586 0.21844402 -129.0703125 -4.98046875 C-130.26527344 -5.17962891 -130.26527344 -5.17962891 -131.484375 -5.3828125 C-140.75392735 -6.6499985 -154.56777787 -8.37222143 -162.73828125 -3.3359375 C-165.54855518 -0.91779482 -168.33994362 1.51177594 -171.0703125 4.01953125 C-171.56756836 4.4676416 -172.06482422 4.91575195 -172.57714844 5.37744141 C-193.72720546 24.62767038 -207.48894772 53.40435898 -209.0703125 82.01953125 C-209.72483092 97.10462254 -207.88422557 111.18444133 -203.640625 125.6796875 C-202.76439756 129.27462062 -202.73542828 132.33580486 -203.0703125 136.01953125 C-205.5007785 138.44999725 -206.6692981 138.78225118 -210.0703125 139.01953125 C-213.53025054 137.52976074 -214.84062309 136.47708714 -216.546875 133.078125 C-227.26960132 99.26871241 -225.80090501 63.01236474 -209.77197266 31.05908203 C-202.60335816 17.43779267 -193.22128532 5.62655418 -182.0703125 -4.98046875 C-181.4 -5.63402344 -180.7296875 -6.28757813 -180.0390625 -6.9609375 C-128.16529622 -55.8873307 -48.99564962 -46.86942331 0 0 Z " fill="#FDFE65" transform="translate(254.0703125,67.98046875)"/>
<path d="M0 0 C7.71880364 7.57347052 7.71880364 7.57347052 8.3671875 12.01953125 C7.9296875 15.01953125 7.9296875 15.01953125 6.2421875 17.39453125 C3.45574422 19.35257247 2.27015638 19.40844636 -1.0703125 19.01953125 C-2.80859375 17.70947266 -2.80859375 17.70947266 -4.3828125 15.87109375 C-4.97610352 15.20029785 -5.56939453 14.52950195 -6.18066406 13.83837891 C-6.80424805 13.11440918 -7.42783203 12.39043945 -8.0703125 11.64453125 C-19.75365836 -1.28674377 -32.47194413 -9.41401267 -48.0703125 -16.98046875 C-48.98425781 -17.43421875 -49.89820313 -17.88796875 -50.83984375 -18.35546875 C-76.69649153 -29.94794131 -109.74580285 -28.37512746 -135.83203125 -18.69140625 C-149.36696053 -13.35844159 -160.23444547 -5.62567529 -171.0703125 4.01953125 C-171.63411621 4.52000977 -172.19791992 5.02048828 -172.77880859 5.53613281 C-193.87241702 24.59623834 -207.5018418 53.63768044 -209.0703125 82.01953125 C-209.72483092 97.10462254 -207.88422557 111.18444133 -203.640625 125.6796875 C-202.76439756 129.27462062 -202.73542828 132.33580486 -203.0703125 136.01953125 C-205.5007785 138.44999725 -206.6692981 138.78225118 -210.0703125 139.01953125 C-213.53025054 137.52976074 -214.84062309 136.47708714 -216.546875 133.078125 C-227.26960132 99.26871241 -225.80090501 63.01236474 -209.77197266 31.05908203 C-202.60335816 17.43779267 -193.22128532 5.62655418 -182.0703125 -4.98046875 C-181.4 -5.63402344 -180.7296875 -6.28757813 -180.0390625 -6.9609375 C-128.16529622 -55.8873307 -48.99564962 -46.86942331 0 0 Z " fill="#354F64" transform="translate(254.0703125,67.98046875)"/>
<path d="M0 0 C5.25872226 4.02203122 7.97671843 10.76140527 11.109375 16.44140625 C11.58117187 17.28058594 12.05296875 18.11976563 12.5390625 18.984375 C12.96396973 19.75491211 13.38887695 20.52544922 13.82666016 21.31933594 C14.2138623 21.87395508 14.60106445 22.42857422 15 23 C15.66 23 16.32 23 17 23 C17.28198242 22.48091064 17.56396484 21.96182129 17.85449219 21.42700195 C19.14796522 19.0527215 20.44890545 16.68261184 21.75 14.3125 C22.1934375 13.49587891 22.636875 12.67925781 23.09375 11.83789062 C27.79763623 3.29480314 27.79763623 3.29480314 31 0 C34.50181214 -0.49148241 36.79665674 -0.65989792 39.9375 1.0625 C41.58982158 4.075557 41.62460143 6.70170506 41 10 C39.29792083 13.82701001 37.17115719 17.36046962 35 20.9375 C34.14148438 22.3925293 34.14148438 22.3925293 33.265625 23.87695312 C31.85710522 26.25969908 30.4351408 28.63322635 29 31 C29.76666992 31.01981934 30.53333984 31.03963867 31.32324219 31.06005859 C34.79917219 31.15535446 38.27450506 31.26501598 41.75 31.375 C42.9565625 31.4059375 44.163125 31.436875 45.40625 31.46875 C46.56640625 31.50742187 47.7265625 31.54609375 48.921875 31.5859375 C49.99018555 31.6173584 51.05849609 31.6487793 52.15917969 31.68115234 C54.95846057 31.9953377 56.65588649 32.46877553 59 34 C60.39935013 36.79870027 60.25265405 38.90498792 60 42 C58.45493534 44.03667615 57.27853844 44.86073078 55 46 C53.04225931 46.15378852 51.07982648 46.24971463 49.1171875 46.31640625 C47.95058594 46.35830078 46.78398437 46.40019531 45.58203125 46.44335938 C44.35871094 46.48267578 43.13539063 46.52199219 41.875 46.5625 C40.64394531 46.60568359 39.41289062 46.64886719 38.14453125 46.69335938 C35.09647147 46.79968704 32.0483281 46.90171781 29 47 C29.36351562 47.59949463 29.72703125 48.19898926 30.1015625 48.81665039 C31.75039481 51.55598446 33.37524051 54.30882542 35 57.0625 C35.57234375 58.00544922 36.1446875 58.94839844 36.734375 59.91992188 C39.81663017 65.18544112 41.92354968 68.85389949 41 75 C39.9375 76.9375 39.9375 76.9375 38 78 C34.5625 78.5 34.5625 78.5 31 78 C26.86451625 73.74313937 24.16381681 68.31535872 21.25 63.1875 C20.74339844 62.30384766 20.23679688 61.42019531 19.71484375 60.50976562 C18.47276091 58.34197954 17.23461577 56.17204462 16 54 C14.79091013 55.95786633 13.58277563 57.91632266 12.375 59.875 C12.01325684 60.46055664 11.65151367 61.04611328 11.27880859 61.64941406 C8.52509751 66.11705825 5.85096288 70.62682407 3.2265625 75.171875 C2 77 2 77 0 78 C-4.05142119 78.25860135 -5.54337669 78.30441554 -9 76 C-10.28745185 72.85782825 -10.33925831 70.84573653 -9.07177734 67.68603516 C-7.6909728 65.00728462 -6.21637139 62.40951277 -4.6875 59.8125 C-4.17509766 58.91080078 -3.66269531 58.00910156 -3.13476562 57.08007812 C-1.17573612 53.64986088 0.80826682 50.28759976 3 47 C1.80455566 46.97812622 1.80455566 46.97812622 0.58496094 46.95581055 C-3.02718124 46.88132525 -6.63839974 46.78466488 -10.25 46.6875 C-11.50425781 46.66494141 -12.75851563 46.64238281 -14.05078125 46.61914062 C-15.85869141 46.5659668 -15.85869141 46.5659668 -17.703125 46.51171875 C-18.81333008 46.48553467 -19.92353516 46.45935059 -21.06738281 46.43237305 C-24.27776908 45.95904687 -25.68832601 45.23742542 -28 43 C-28.56640625 41.0625 -28.56640625 41.0625 -28.5625 39 C-28.58441406 38.319375 -28.60632813 37.63875 -28.62890625 36.9375 C-28 35 -28 35 -25.84667969 33.41088867 C-22.61055455 31.80698068 -20.41980598 31.57684251 -16.82421875 31.48828125 C-15.66728516 31.45283203 -14.51035156 31.41738281 -13.31835938 31.38085938 C-12.12017578 31.35830078 -10.92199219 31.33574219 -9.6875 31.3125 C-7.8612207 31.26125977 -7.8612207 31.26125977 -5.99804688 31.20898438 C-2.99878986 31.12665183 0.00018014 31.05745079 3 31 C2.64172119 30.39003174 2.28344238 29.78006348 1.91430664 29.15161133 C0.28964524 26.37615908 -1.32400227 23.59445579 -2.9375 20.8125 C-3.50146484 19.85279297 -4.06542969 18.89308594 -4.64648438 17.90429688 C-5.18466797 16.97294922 -5.72285156 16.04160156 -6.27734375 15.08203125 C-6.77484131 14.22843018 -7.27233887 13.3748291 -7.78491211 12.49536133 C-9.02783737 9.94283187 -9.66207588 7.81307786 -10 5 C-8.11975583 -0.20683002 -5.27964644 -0.52796464 0 0 Z " fill="#344E64" transform="translate(218,371)"/>
</svg>
